<?xml version="1.0" encoding="utf-8"?>
<!-- Generator: Adobe Illustrator 22.1.0, SVG Export Plug-In . SVG Version: 6.00 Build 0)  -->
<svg version="1.1" id="Capa_1" xmlns="http://www.w3.org/2000/svg" xmlns:xlink="http://www.w3.org/1999/xlink" x="0px" y="0px"
	 viewBox="0 0 253 88" style="enable-background:new 0 0 253 88;" xml:space="preserve">
<style type="text/css">
	.st0{fill:#76B5D7;}
</style>
<g>
	<path class="st0" d="M9.8,33.3c-4,4.5-5.9,10.4-5.9,17.6c0,7.2,2,13.1,5.9,17.6c4,4.5,9.4,6.7,16.2,6.7c4.8,0,8.7-1.1,11.6-3.3
		V61.8c-2.7,3.2-6.2,4.8-10.5,4.8c-4.1,0-7.3-1.5-9.6-4.4c-2.3-2.9-3.5-6.7-3.5-11.3c0-4.6,1.2-8.4,3.5-11.2
		c2.3-2.9,5.5-4.3,9.6-4.3c4.2,0,7.7,1.6,10.5,4.8V29.8c-3.1-2.2-6.9-3.3-11.6-3.3C19.1,26.6,13.7,28.8,9.8,33.3z"/>
	<path class="st0" d="M153.2,26.6c-6.7,0-12,2.6-15.9,7.8c-3.2-5.2-8.1-7.8-14.7-7.8c-5.6,0-10.2,2-13.9,6l-0.5-5.1h-9.5v46.8h10.4
		V46.2c0-2.9,1-5.4,3.1-7.4c2.1-2,4.6-3,7.5-3c2.8,0,5.1,0.9,7,2.8c1.8,1.9,2.8,4.2,2.8,7v28.7H140V46.2c0-2.9,1-5.4,3-7.4
		c2-2,4.5-3,7.5-3c2.8,0,5.1,0.9,7,2.8c1.8,1.9,2.8,4.2,2.8,7v28.7h10.5v-30c0-5.2-1.6-9.5-4.9-12.8
		C162.6,28.2,158.4,26.6,153.2,26.6z"/>
	<path class="st0" d="M187.1,6.4c-1.7,0-3.2,0.6-4.5,1.9c-1.2,1.2-1.9,2.7-1.9,4.5c0,1.7,0.6,3.2,1.9,4.4c1.2,1.2,2.7,1.8,4.5,1.8
		s3.2-0.6,4.5-1.8c1.2-1.2,1.9-2.7,1.9-4.4c0-1.7-0.6-3.2-1.9-4.5C190.3,7,188.8,6.4,187.1,6.4z"/>
	<rect x="181.9" y="27.5" class="st0" width="10.4" height="46.8"/>
	<polygon class="st0" points="246,27.5 233,27.5 214.3,45 214.3,4.1 204,4.1 204,74.3 214.3,74.3 214.3,51.8 245.7,79.6 245.7,67.1 
		224.1,48.1 	"/>
	<path class="st0" d="M91.8,50.5c0-13.4-10.9-24.3-24.3-24.3S43.2,37.1,43.2,50.5c0,13.4,10.9,24.3,24.3,24.3c0.6,0,1.1,0,1.6-0.1
		c0,0-0.1,0-0.1,0.1L86.7,75l-3.5-5.9C88.5,64.6,91.8,58,91.8,50.5z"/>
</g>
</svg>
